<?xml version="1.0" standalone="no"?>
<!DOCTYPE svg PUBLIC "-//W3C//DTD SVG 20010904//EN"
 "http://www.w3.org/TR/2001/REC-SVG-20010904/DTD/svg10.dtd">
<svg version="1.0" xmlns="http://www.w3.org/2000/svg"
 width="260.000000pt" height="260.000000pt" viewBox="0 0 260.000000 260.000000"
 preserveAspectRatio="xMidYMid meet">
<metadata>
Created by potrace 1.14, written by Peter Selinger 2001-2017
</metadata>
<g transform="translate(0.000000,260.000000) scale(0.100000,-0.100000)"
fill="#000000" stroke="none">
<path d="M877 1393 c-224 -494 -407 -904 -407 -910 0 -10 173 -13 831 -13
l831 0 -5 21 c-3 12 -187 421 -409 910 -273 601 -408 889 -418 889 -10 0 -142
-280 -423 -897z m815 -25 c213 -468 386 -853 384 -855 -1 -2 -352 -2 -778 -1
l-776 3 386 852 c213 469 389 853 392 853 3 0 179 -383 392 -852z"/>
</g>
</svg>
